<?xml version="1.0" encoding="UTF-8"?>
<svg xmlns="http://www.w3.org/2000/svg" xmlns:xlink="http://www.w3.org/1999/xlink" viewBox="0 0 24 24" width="24px" height="24px">
<g id="surface71016893">
<path style=" stroke:none;fill-rule:nonzero;fill:rgb(90.588236%,29.803923%,23.529412%);fill-opacity:1;" d="M 10.625 2 C 10.242188 2 9.890625 2.21875 9.722656 2.5625 C 5.84375 10.464844 3.84375 17.640625 3.21875 20.097656 C 3.089844 20.609375 3.375 21.125 3.875 21.292969 L 5.609375 21.871094 C 5.859375 21.953125 6.132812 21.933594 6.371094 21.816406 L 7.539062 21.230469 C 7.824219 21.085938 8.023438 20.820312 8.078125 20.503906 C 8.363281 18.789062 9.472656 12.894531 12 7 C 12.679688 8.585938 13.25 10.167969 13.734375 11.675781 L 10.871094 13.082031 C 10.308594 14.910156 9.910156 16.550781 9.632812 17.800781 L 15.222656 17.121094 C 15.5625 18.617188 15.820312 19.890625 15.921875 20.503906 C 15.976562 20.820312 16.175781 21.085938 16.460938 21.230469 L 17.628906 21.816406 C 17.867188 21.933594 18.140625 21.953125 18.394531 21.871094 L 20.128906 21.292969 C 20.625 21.125 20.910156 20.609375 20.78125 20.097656 C 20.15625 17.640625 18.15625 10.464844 14.28125 2.5625 C 14.109375 2.21875 13.757812 2 13.375 2 Z M 10.625 2 "/>
</g>
</svg>
